PathFileType	4	(X/Y/Z)	T1_P1_Vision_NoMovement_1_0-649.trc
DataRate	CameraRate	NumFrames	NumMarkers	Units	OrigDataRate	OrigDataStartFrame	OrigNumFrames
60	60	5	27	m	60	405	649
Frame#	Time	RHip			RKnee			RAnkle			RBigToe			RSmallToe			RHeel			LHip			LKnee			LAnkle			LBigToe			LSmallToe			LHeel			Neck			Head			Nose			RShoulder			RElbow			RWrist			RThumb			RIndex			RPinky			LShoulder			LElbow			LWrist			LThumb			LIndex			LPinky		
		X1	Y1	Z1	X2	Y2	Z2	X3	Y3	Z3	X4	Y4	Z4	X5	Y5	Z5	X6	Y6	Z6	X7	Y7	Z7	X8	Y8	Z8	X9	Y9	Z9	X10	Y10	Z10	X11	Y11	Z11	X12	Y12	Z12	X13	Y13	Z13	X14	Y14	Z14	X15	Y15	Z15	X16	Y16	Z16	X17	Y17	Z17	X18	Y18	Z18	X19	Y19	Z19	X20	Y20	Z20	X21	Y21	Z21	X22	Y22	Z22	X23	Y23	Z23	X24	Y24	Z24	X25	Y25	Z25	X26	Y26	Z26	X27	Y27	Z27
406	6.766666666666667	-68.43324409659719	3779.565518019798	-524.3669057843099	284.3960717167158	3975.1081991362717	-526.1009746966868	640.8786727732589	4125.477575495899	-524.9236784175174	688.3495409347752	4010.0173824944877	-455.75209586366293	686.6521796405264	3964.310362441966	-490.3131908402367	676.6058277670317	4164.658387828083	-531.5915642466566	-107.95579532703215	3882.8466147779263	-348.84044388887	241.3525615661688	4003.6795592926437	-369.92669287482306	620.3742004367264	4251.784791629133	-455.85477846921265	669.5241934173876	3997.8956548374126	-345.2887602442556	668.6831440125798	4120.09813271208	-343.07081357544854	672.3094899826309	4322.737653158525	-499.9383700965771	-677.4506794277679	3667.01244397578	-477.42838711777193	-922.0263528749346	3562.1272733581236	-436.08594725096015	-789.550003173379	3555.9105680025777	-388.6244745075023	-558.8719736991059	3652.4077051426248	-644.3191011809483	-290.72776925249605	3701.696938306653	-681.077759543967	-27.93081833966356	3650.6578304429418	-599.6958105831354	85.19368500390894	3750.2212861781763	-552.9341039110905	119.7010686059499	3774.663188167048	-567.6309208348047	101.04588799775627	3735.504917578018	-588.9362830572132	-610.3130167040924	3756.499741107164	-357.45714386542653	-381.4506033043757	3985.5028906284692	-346.360857950466	-126.71314914939914	3939.437839043932	-242.1106135296142	9.661624163443776	3850.4816346367156	-253.70133141786863	26.38173890542422	3850.103787941261	-204.29675931312116	-0.5991466921541084	3974.6971175997614	-215.80181730414438
407	6.783333333333333	-67.634457992613	3798.054257127648	-538.4278913479952	284.51248148734845	3974.8674324595327	-526.2217299281506	640.8921489144853	4125.207415246373	-524.8070180215591	699.8487632858804	4044.8851123699883	-462.664721296188	686.8166102581463	3964.9553792580164	-490.71494100724595	681.2271283856961	4163.816901201559	-524.8679123302168	-107.9679609488417	3882.90732731986	-348.8575955214834	239.97135022168845	3984.0816172206573	-358.04876981701915	626.86950787734	4256.130642572621	-457.8686717854861	670.4555664587651	3997.3965657208423	-349.99328382573685	682.2723176861577	4128.178897608013	-344.6437274495006	672.0713704602078	4321.708257584348	-499.421769835499	-677.4280535936792	3666.9713707355713	-477.41113284212105	-921.9681810915083	3562.242609042928	-436.16762091399374	-789.5897075166578	3556.022022221559	-388.6837461755164	-557.0972239890743	3635.347679019039	-629.7530096338413	-292.6695372453717	3728.6712697489984	-688.7967259213294	-27.976880683038157	3650.8680251184255	-599.8264756889564	85.10268740262846	3750.2605228007696	-553.1073612666806	109.36037885960923	3772.9215246059043	-568.9963742156112	100.83199891534761	3735.739787372208	-589.0049116697544	-610.3108474659166	3756.535180453533	-357.5438079600287	-386.9305986131908	3983.2557866120997	-346.60627326360674	-121.74028590244379	3943.130797815362	-243.49481036131652	16.553663460338754	3876.4089817977274	-275.50318221145176	26.762903207609387	3851.118320176987	-204.62526785753585	4.05018035559079	3977.9812328384755	-216.87355223535238
408	6.8	-68.42080036881256	3779.5696959852703	-524.282723558557	284.5056441702086	3974.871236333838	-526.1285656800453	638.905868447969	4153.05640648851	-532.4545788377405	694.8309373105766	4014.365404128278	-458.5567168097945	688.0359195619768	3966.0094025119643	-497.78972324520424	686.510144054303	4195.474178758167	-531.6069299849888	-107.9602660693088	3883.0066917787417	-348.92816103518567	239.90806298389873	3984.195816465927	-358.0587824471119	622.1896775760813	4233.605318263405	-442.5362696456454	670.4454565984847	3996.3892655155823	-349.97019961518964	682.2686139158089	4126.921211256198	-344.53067982146086	665.5135718803407	4296.085336290192	-476.94152610009536	-677.4355766975951	3666.935101994678	-477.45211559015894	-916.6176301539681	3540.1288499159105	-431.0307533026965	-785.0913765383466	3557.3896806925045	-388.76438538548547	-557.0978893415814	3635.295026792023	-629.6445345888591	-292.6938762841964	3728.8861090207324	-688.9219141116052	-28.030409530584546	3650.692585677273	-599.7047534618767	84.99479311587045	3750.319908102775	-553.0737808711542	108.81785471271938	3771.948313132663	-567.0569545304213	94.82362962281695	3732.6212642839528	-587.4481519194983	-610.3073102136256	3756.4796674364975	-357.58934681273644	-382.0937815310415	3986.713625539084	-347.7681533026392	-121.73393909833182	3943.0786061739686	-243.46969459695717	15.830612378169533	3872.980824256007	-268.0746776819544	27.074349775478495	3851.41135591812	-204.65872128362133	4.108208543645644	3978.413862146439	-216.96853319300234
409	6.816666666666666	-66.81719589680445	3817.283501923828	-553.0803312909372	284.44475385546787	3975.253618066228	-526.3618567271263	641.0830973202509	4125.674811932329	-524.8726410920842	711.4909606170012	4070.0224585350143	-479.55135634823944	694.5817344667481	3987.425464269772	-518.7481933378774	675.744918385269	4165.074229648588	-525.9225878345318	-107.45097384475363	3902.3245379414097	-362.5266358422881	241.39733789346482	4003.6535900604686	-369.9872000020441	614.0256776545677	4226.111831449205	-432.5748149412519	670.3525806819848	3996.0355281790157	-353.8368847929859	684.8923120965114	4153.1402435774235	-349.32910402869305	669.1940292717264	4294.438911543422	-475.7006893582389	-679.7865461616894	3683.880696905016	-490.80259379001166	-916.7068869627145	3539.9568098292257	-431.0481451929508	-792.7924389747186	3573.2481292395523	-401.69207336848956	-558.9553861339308	3652.6120519650112	-644.4128068311504	-298.4769660924972	3746.180609145465	-704.0050478706999	-33.26175032039724	3647.900722444296	-598.3025955721603	85.03355401898429	3750.4842960481806	-553.2758923831017	107.8787811175621	3746.5730023157807	-560.866367347734	94.26290741112125	3734.687147879087	-583.5635550538046	-610.3330973363167	3756.565688850822	-357.6826373457057	-376.403369624886	3988.526982654054	-347.4551029127081	-121.60377526294113	3942.793610044135	-243.37530629241732	22.485437040594345	3878.6601046761753	-274.8629426688694	27.560275108714738	3877.423109111632	-208.83748311220572	4.1254703392210645	3978.0900508391264	-216.71614915239408
410	6.833333333333333	-67.6796785179781	3798.741333512766	-538.7974547085079	289.5683893277004	3975.31607378393	-525.8159487586187	639.9694568580765	4124.699638003509	-518.6435790226826	706.01291931964	4048.5304266757653	-464.5910690943512	688.3725090200428	3965.6678324459904	-497.0444363995804	675.7565076762811	4164.840580295951	-525.8394648284107	-107.5639275659747	3902.2416306177392	-362.49448503931916	241.39874725477333	4003.864980506283	-370.03958262283345	621.7632992222807	4232.468161201524	-441.7805215033537	669.8545830503671	3997.68171304931	-349.8131574507301	686.4071609737526	4156.982568878488	-348.95231629321336	664.602147324944	4293.873992600262	-475.7453612919436	-677.4353661125157	3667.1519505703673	-477.5327287590342	-916.7664757721985	3539.9810374853996	-431.0947389670991	-792.7661377399465	3573.14688448891	-401.62899604839356	-558.881980690681	3652.667048779845	-644.4724405428868	-293.3276676276065	3749.463551629013	-705.481592902179	-27.921713470539288	3651.0395429114296	-599.8711646128558	85.06096883268994	3750.1316486948676	-553.143852062057	113.48870040590316	3749.240953707403	-562.122021466715	100.52954767934433	3737.930528432225	-585.156205473859	-610.3570296736737	3756.595751904514	-357.7188165020811	-381.138335389718	3987.307916711187	-347.3407539142435	-121.61983719945546	3942.7213605995976	-243.4164809373062	21.354577598700025	3860.0969906582386	-262.0737800800104	33.17271381538494	3880.6471973090183	-209.90505797275614	4.093295929020543	3977.7785780333597	-216.60118492951577
